<?xml version="1.0" encoding="UTF-8" standalone="no"?>
<!-- Created with Inkscape (http://www.inkscape.org/) -->

<svg
   width="259.05273mm"
   height="68.80349mm"
   viewBox="0 0 259.05274 68.80349"
   version="1.1"
   id="svg5"
   inkscape:version="1.1.1 (3bf5ae0d25, 2021-09-20)"
   sodipodi:docname="ipro.svg"
   xmlns:inkscape="http://www.inkscape.org/namespaces/inkscape"
   xmlns:sodipodi="http://sodipodi.sourceforge.net/DTD/sodipodi-0.dtd"
   xmlns="http://www.w3.org/2000/svg"
   xmlns:svg="http://www.w3.org/2000/svg">
  <sodipodi:namedview
     id="namedview7"
     pagecolor="#505050"
     bordercolor="#eeeeee"
     borderopacity="1"
     inkscape:pageshadow="0"
     inkscape:pageopacity="0"
     inkscape:pagecheckerboard="0"
     inkscape:document-units="mm"
     showgrid="false"
     fit-margin-top="0"
     fit-margin-left="0"
     fit-margin-right="0"
     fit-margin-bottom="0"
     inkscape:zoom="0.2841821"
     inkscape:cx="42.226446"
     inkscape:cy="383.55688"
     inkscape:window-width="1920"
     inkscape:window-height="1017"
     inkscape:window-x="-8"
     inkscape:window-y="-8"
     inkscape:window-maximized="1"
     inkscape:current-layer="layer1" />
  <defs
     id="defs2" />
  <g
     inkscape:label="Layer 1"
     inkscape:groupmode="layer"
     id="layer1"
     style="opacity:1"
     transform="translate(31.460939,-44.347831)">
    <path
       id="path29692"
       style="font-size:52.1924px;line-height:1.25;font-family:'RACE1 Brannt Plus Chiseled NCV';-inkscape-font-specification:'RACE1 Brannt Plus Chiseled NCV, Normal';fill:#000000;fill-opacity:1;stroke-width:0.863186"
       d="m 175.14171,44.360428 c -14.49437,0.154055 -28.18639,10.664013 -32.1292,24.603134 0.86422,-7.744539 -2.73962,-16.093848 -9.64564,-19.994189 -5.53842,-3.134784 -12.11163,-3.242369 -18.30571,-3.366195 -7.86358,0.04944 -15.733105,-0.09447 -23.593052,0.04106 -2.337066,0.414009 -3.382661,3.121893 -2.949027,5.24747 0,3.536971 0,7.073942 0,10.610914 -2.135768,-5.809 -6.75796,-10.610025 -12.478322,-12.974481 -6.882407,-3.102665 -14.592955,-3.045721 -21.988388,-2.942784 -19.750301,0.01318 -39.500631,-0.0029 -59.2509446,0.003 0,7.993278 0,15.986559 0,23.979837 1.8781558,0 3.7563133,0 5.6344707,0 0,6.121325 0,12.242647 0,18.363972 -1.8781574,0 -3.7563149,0 -5.6344707,0 0,7.994312 0,15.988624 0,23.982934 22.6887966,0 45.3775956,0 68.0663926,0 0,-5.07423 0,-10.14846 0,-15.222681 7.987705,0.235692 16.492279,-2.480773 21.688217,-8.806768 1.712829,-2.087054 3.046889,-4.476713 3.963045,-7.014404 0.001,10.347953 0.0022,20.695903 0.0032,31.043853 9.181986,0 18.363979,0 27.545969,0 0,-1.35823 0,-2.71645 0,-4.07468 0.0159,1.35878 0.0767,2.71653 0.11781,4.07468 9.13961,0 18.27921,0 27.41882,0 -0.19188,-7.40532 0.19,-14.816035 -0.15195,-22.21848 2.5049,7.629234 7.76409,14.32019 14.68571,18.41873 10.33518,6.32137 24.1228,6.84118 34.66636,0.70927 10.43292,-5.80432 17.63525,-17.264124 17.72852,-29.278663 0.3384,-11.825151 -5.94839,-23.616077 -16.06975,-29.785243 -5.71902,-3.651058 -12.53363,-5.588605 -19.32197,-5.400342 z M 116.2387,68.123197 c 0.56063,0.04623 1.21224,-0.08882 1.70553,0.229472 -0.62107,0.0961 -1.25199,0.04984 -1.87608,0.111631 0.0918,-0.09971 -0.14464,-0.502626 0.17055,-0.341106 z m -82.299874,1.445054 c 1.11955,-0.14067 0.309813,1.647936 0.555076,2.381549 0,5.327474 0,10.654948 0,15.982422 -1.838878,0 -3.677757,0 -5.516635,0 0,-6.121324 0,-12.242647 0,-18.363971 1.653854,0 3.307707,0 4.961559,0 z m 29.239091,0.313197 c 0.770215,0.681379 0.544612,1.905711 -0.05892,2.611022 0.0043,-0.885823 2.56e-4,-1.771796 0.0094,-2.657535 z m 112.791743,3.007947 c 4.06359,-0.08572 7.29924,5.024437 5.06883,8.566476 -1.72039,3.21541 -6.71178,4.246447 -9.26335,1.435755 -2.38682,-2.31772 -2.36688,-6.773334 0.48642,-8.71425 1.0382,-0.838764 2.37418,-1.299238 3.7081,-1.287981 z m -33.98047,0.790749 c -0.36325,2.501475 -0.45558,5.043192 -0.25429,7.563276 -0.57676,-1.043557 -1.25796,-2.032397 -2.04664,-2.927321 0.96763,-1.421933 1.76554,-3.057743 2.30093,-4.635955 z" />
    <path
       id="path29559"
       style="fill:#000000;fill-opacity:1;stroke:#000000;stroke-width:0;stroke-linecap:square;stroke-miterlimit:4;stroke-dasharray:none;paint-order:markers stroke fill"
       d="m -11.925781,56.330078 c -6.511645,7.821676 -13.023883,15.642859 -19.535157,23.464844 6.561582,7.477936 13.126059,14.95334 19.689454,22.429688 73.225911,0 146.451824,0 219.677734,0 6.56214,-7.476306 13.12519,-14.951817 19.68555,-22.429688 -6.56133,-7.885849 -13.12504,-15.769725 -19.68555,-23.65625 -73.22461,0 -146.449219,0 -219.673828,0 -0.05274,0.0638 -0.105469,0.127604 -0.158203,0.191406 z" />
    <path
       id="rect28751"
       style="fill:#007383;fill-opacity:1;stroke:#ffffff;stroke-width:3.55;stroke-linecap:square;stroke-miterlimit:4;stroke-dasharray:none;stroke-opacity:1;paint-order:markers stroke fill"
       d="M -9.4172677,60.660074 -25.602686,79.669073 -9.4172677,97.702736 H 134.36419 205.54762 l 16.1854,-18.033663 -16.1854,-19.008999 h -71.18343 z"
       sodipodi:nodetypes="ccccccccc" />
    <path
       id="path9775"
       style="font-size:52.1924px;line-height:1.25;font-family:'RACE1 Brannt Plus Chiseled NCV';-inkscape-font-specification:'RACE1 Brannt Plus Chiseled NCV, Normal';fill:#ffffff;fill-opacity:1;stroke-width:0.863186"
       d="m 175.16032,46.88152 c -13.82635,0.159451 -26.86928,10.477273 -30.02752,23.9714 -2.91686,11.229028 0.81522,23.976435 9.61085,31.61857 8.24238,7.44018 20.49594,10.18196 31.07053,6.67381 11.16255,-3.5748 20.07472,-13.641389 21.78993,-25.302897 1.7424,-10.328088 -2.03158,-21.436365 -9.87506,-28.421109 -6.04417,-5.605276 -14.30978,-8.823148 -22.56873,-8.539774 z m -83.174349,1.237289 c -1.392709,0.324249 -0.896037,1.957275 -0.920989,2.970734 -0.05065,19.43 -0.0073,38.87049 -0.0217,58.304527 7.501258,0 15.002518,0 22.503768,0 0,-7.03508 0,-14.070158 0,-21.105236 1.68682,0.09321 4.03279,0.08629 4.76929,1.944312 0.36059,2.079451 0.14147,4.221134 0.24371,6.326549 0.0175,4.278055 -0.077,8.557715 0.0757,12.834375 7.47336,0 14.94671,0 22.42005,0 -0.13193,-7.87911 0.31597,-15.785633 -0.35766,-23.643562 -0.51044,-2.814563 -2.1764,-5.435451 -4.40234,-7.136715 4.25767,-4.891351 5.44868,-12.069683 3.27922,-18.143826 -1.67583,-5.079635 -5.77562,-9.39629 -10.9951,-10.831349 -6.13014,-1.890288 -12.63515,-1.394697 -18.96303,-1.534151 -5.87517,0.007 -11.76513,0.0054 -17.630904,0.01429 z m -49.18766,-0.0032 c -1.927772,-0.0019 -3.855543,-0.006 -5.783318,-0.0062 0,20.428187 0,40.856375 0,61.284561 7.777245,0 15.554489,0 23.331734,0 0,-5.12177 0,-10.243552 0,-15.365328 7.356734,0.726174 15.372655,-0.905366 20.832348,-6.174041 5.130545,-4.948337 7.026346,-12.44351 6.346873,-19.388278 C 86.998454,62.06837 83.673719,55.719262 78.025753,52.431394 71.944562,48.596641 64.528179,47.927989 57.505619,48.127782 c -4.902464,-0.02647 -9.8048,-0.02526 -14.707308,-0.01207 z m -45.4757932,0.834163 c 0,6.032429 0,12.064858 0,18.097287 1.8781574,0 3.7563148,0 5.6344707,0 0,7.802053 0,15.604105 0,23.406158 -1.8781559,0 -3.7563133,0 -5.6344707,0 0,6.313583 0,12.627173 0,18.940753 11.6451943,0 23.2903872,0 34.9355812,0 0,-6.31358 -1e-6,-12.62717 0,-18.940753 -1.933974,0 -3.867949,0 -5.801923,0 0,-7.802053 0,-15.604105 0,-23.406158 1.933974,0 3.867949,0 5.801923,0 0,-6.31255 -1e-6,-12.625101 0,-18.937651 -11.645194,0 -23.2903869,0 -34.9355812,0 0,0.280121 0,0.560242 0,0.840364 z M 114.40913,65.586524 c 1.89857,0.06435 4.26583,-0.349538 5.67167,1.249694 1.01876,1.495104 0.14797,4.081917 -1.86609,3.995902 -1.54473,0.235543 -3.11238,0.121602 -4.66766,0.115997 0,-1.797532 0,-3.595063 0,-5.392596 0.28736,0.01032 0.57472,0.02067 0.86208,0.03101 z m -52.223525,1.355201 c 1.944106,0.106535 3.953952,1.507436 3.937876,3.615494 0.278733,2.240231 -1.195536,4.679868 -3.559558,4.915288 -1.106875,0.239642 -2.207103,-0.630979 -2.030089,-1.799103 0.140845,-2.245267 0.03768,-4.54084 0.08578,-6.759587 0.523863,-0.02482 1.043637,-0.02639 1.565992,0.02791 z m 113.731345,3.426577 c 5.13942,-0.116569 9.59129,5.410435 8.07494,10.400669 -1.06334,4.577195 -6.46447,7.514714 -10.88132,5.85464 -4.46717,-1.449485 -7.00126,-7.075787 -4.88691,-11.331575 1.33945,-2.928069 4.45743,-4.972741 7.69329,-4.923734 z" />
    <path
       id="path9550"
       style="font-size:52.1924px;line-height:1.25;font-family:'RACE1 Brannt Plus Chiseled NCV';-inkscape-font-specification:'RACE1 Brannt Plus Chiseled NCV, Normal';fill:#ffc64e;fill-opacity:1;stroke-width:0.863186"
       d="m 176.00464,48.545962 c -4.14329,0 -8.06496,0.801073 -11.7663,2.403144 -3.6461,1.546822 -6.85039,3.701439 -9.61259,6.463633 -2.70695,2.706953 -4.86156,5.910423 -6.46363,9.611762 -1.54683,3.646098 -2.32028,7.540967 -2.32028,11.684258 0,4.14329 0.77345,8.065788 2.32028,11.767126 1.60207,3.646099 3.75668,6.850387 6.46363,9.612585 2.7622,2.70695 5.96649,4.86156 9.61259,6.46363 3.70134,1.60207 7.62301,2.40315 11.7663,2.40315 4.14329,0 8.06579,-0.77345 11.76713,-2.32028 3.70134,-1.60208 6.90562,-3.75668 9.61258,-6.46363 2.76219,-2.762199 4.94442,-5.9665 6.5465,-9.612586 1.60207,-3.701351 2.40314,-7.65146 2.40314,-11.849995 0,-4.198532 -0.80107,-8.121029 -2.40314,-11.767127 -1.60208,-3.646098 -3.78431,-6.82194 -6.5465,-9.528893 -2.70696,-2.762194 -5.91124,-4.916811 -9.61258,-6.463633 -3.6461,-1.602071 -7.5686,-2.403144 -11.76713,-2.403144 z M -0.99617234,49.788966 V 65.36716 H 4.6387885 V 92.133226 H -0.99617234 V 107.71224 H 30.576186 V 92.133226 H 24.775492 V 65.36716 h 5.800694 V 49.788966 Z m 39.69251334,0 V 107.71224 H 58.66731 V 92.050361 c 2.651705,0.497193 5.552143,0.580057 8.701044,0.248599 3.204142,-0.331463 6.159828,-1.270646 8.866778,-2.817481 2.762193,-1.546818 5.054097,-3.811928 6.877146,-6.7951 1.878293,-3.038421 2.81748,-6.98853 2.81748,-11.849992 0,-3.646098 -0.662956,-6.795146 -1.988808,-9.446847 -1.270608,-2.651713 -3.038496,-4.833123 -5.303493,-6.545679 -2.265002,-1.71256 -4.943629,-2.983231 -8.037286,-3.811886 -3.038417,-0.82866 -6.325575,-1.243009 -9.861184,-1.243009 z m 54.028518,0 V 107.71224 H 111.86716 V 86.581134 c 0.66293,0 1.464,0.0276 2.40314,0.08286 0.99439,0 1.93358,0.138117 2.81748,0.414336 0.88391,0.276219 1.62974,0.745812 2.23741,1.408742 0.60769,0.607686 0.91154,1.546877 0.91154,2.817481 v 16.407687 h 19.14148 V 89.895815 c 0,-3.148893 -0.55246,-5.579737 -1.65734,-7.292301 -1.04964,-1.767809 -2.65179,-2.927986 -4.80629,-3.480419 1.82305,-1.104879 3.28707,-2.78989 4.39195,-5.054891 1.10487,-2.264993 1.65734,-4.695833 1.65734,-7.292306 0,-0.939145 -0.0829,-1.878335 -0.2486,-2.81748 -0.11049,-0.939145 -0.33147,-1.850711 -0.66293,-2.734612 -0.77343,-2.209752 -1.76786,-4.032058 -2.98322,-5.468408 -1.21536,-1.491581 -2.73464,-2.679383 -4.55769,-3.563284 -1.76781,-0.883904 -3.86635,-1.491619 -6.29708,-1.823078 -2.43073,-0.386712 -5.24829,-0.58007 -8.45244,-0.58007 z m 19.142301,14.086587 h 3.64615 c 0.82866,0 1.62974,0.05525 2.40314,0.165734 0.82867,0.05524 1.54686,0.248602 2.15455,0.58007 0.66292,0.276218 1.16014,0.718187 1.49161,1.325873 0.38671,0.552437 0.58007,1.325886 0.58007,2.320275 0,1.71256 -0.46959,2.872738 -1.40874,3.480419 -0.8839,0.607682 -2.40318,0.911538 -4.55769,0.911538 h -4.30909 z M 61.0442,65.258855 c 0.252051,0.0034 0.509647,0.01164 0.772058,0.02542 1.049634,0 2.016445,0.193362 2.900349,0.58007 0.883901,0.386708 1.602105,0.966794 2.154542,1.74021 0.607686,0.773415 0.911537,1.850719 0.911537,3.231816 0,1.436342 -0.248607,2.596515 -0.745803,3.480415 -0.441948,0.883905 -1.077284,1.54686 -1.905944,1.988812 -0.828655,0.441953 -1.795466,0.718184 -2.900345,0.828673 -1.049634,0.05524 -2.154562,-4e-6 -3.314685,-0.165738 V 65.36716 C 59.578835,65.2843 60.28805,65.2485 61.0442,65.258855 Z m 114.79471,3.422986 c 1.38109,0 2.67939,0.276232 3.89475,0.828673 1.27061,0.497192 2.34791,1.215397 3.23181,2.154541 0.93915,0.883905 1.65736,1.933585 2.15455,3.148952 0.55243,1.215364 0.82867,2.513655 0.82867,3.894752 0,1.381096 -0.27624,2.679387 -0.82867,3.894755 -0.49719,1.215363 -1.2154,2.292668 -2.15455,3.231817 -0.8839,0.8839 -1.9612,1.602104 -3.23181,2.154541 -1.21536,0.497197 -2.51366,0.745804 -3.89475,0.745804 -1.3811,0 -2.67857,-0.248607 -3.89394,-0.745804 -1.21536,-0.552437 -2.29267,-1.270641 -3.23181,-2.154541 -0.88391,-0.939149 -1.6021,-2.016454 -2.15455,-3.231817 -0.49719,-1.215368 -0.7458,-2.513659 -0.7458,-3.894755 0,-1.381097 0.24861,-2.679388 0.7458,-3.894752 0.55245,-1.215367 1.27064,-2.265047 2.15455,-3.148952 0.93914,-0.939144 2.01645,-1.657349 3.23181,-2.154541 1.21537,-0.552441 2.51284,-0.828673 3.89394,-0.828673 z" />
    <path
       id="path20820"
       style="font-size:52.1924px;line-height:1.25;font-family:'RACE1 Brannt Plus Chiseled NCV';-inkscape-font-specification:'RACE1 Brannt Plus Chiseled NCV, Normal';opacity:0.280357;fill:#000000;fill-opacity:1;stroke-width:0.863186"
       d="m 174.38196,52.788878 c -7.65415,0.429396 -14.92868,4.561926 -19.4524,10.713866 -1.70056,2.294374 -3.17415,5.337485 -3.96616,8.298209 -1.4432,5.173996 -1.15978,11.103921 0.72874,16.121967 1.72807,4.74291 5.12449,9.084876 9.33386,12.022984 5.09313,3.673146 11.81702,5.422196 17.87719,4.650956 7.14271,-0.76566 13.91017,-4.57264 18.10471,-10.430734 5.36718,-7.099916 6.70844,-17.056551 3.16895,-25.255078 -2.22145,-5.316697 -6.22988,-9.808072 -11.14444,-12.662274 -4.45024,-2.597531 -9.48849,-3.726971 -14.65045,-3.459896 z m -122.659044,1.21248 c -2.94179,-0.003 -5.883582,-0.0062 -8.825374,-0.0094 0,16.506488 0,33.012977 0,49.519462 3.855546,0 7.71109,0 11.566636,0 0,-5.522833 0,-11.045669 0,-16.568506 6.14819,1.545786 13.024019,2.25061 18.877932,-0.699121 C 78.796083,83.69864 81.858582,77.58333 81.726188,71.712618 82.021856,66.358921 79.967994,60.49983 75.211883,57.612271 68.289995,53.075907 59.647786,54.11902 51.722916,54.001358 Z M 3.2050665,61.164609 c 1.8781574,0 3.7563148,0 5.6344723,0 -1.6e-6,11.723752 0,23.447503 0,35.171255 -1.8781575,0 -3.7563149,0 -5.6344723,0 0,2.391885 0,4.783766 0,7.175656 7.7234955,0 15.4469885,0 23.1704825,0 0,-2.39189 0,-4.783771 0,-7.175656 -1.933975,0 -3.867949,0 -5.801924,0 0,-11.723752 2e-6,-23.447503 0,-35.171255 1.933975,0 3.867949,0 5.801924,0 0,-2.390851 0,-4.781703 0,-7.172554 -7.723494,0 -15.446987,0 -23.1704825,0 0,2.390851 0,4.781703 0,7.172554 z M 96.925823,103.51152 c 3.579557,0 7.159117,0 10.738677,0 0,-7.080559 0,-14.161119 0,-21.241677 4.27742,0.371627 8.96672,-0.540956 12.82532,1.814575 3.19545,1.647498 4.26844,5.546584 3.9616,8.899666 -0.0324,3.508113 -0.005,7.018466 -0.0143,10.527436 3.57647,0 7.15292,0 10.72937,0 -0.0738,-5.64805 0.26194,-11.322486 -0.2977,-16.949928 -0.38276,-1.818719 -1.84028,-3.434029 -3.76037,-3.576927 -2.75921,-0.76851 -5.51809,-1.538203 -8.27761,-2.305622 2.83833,-2.258757 6.23036,-3.704255 8.9886,-6.06152 3.79703,-3.987497 3.72865,-10.572493 0.83529,-15.056118 -1.6631,-2.651905 -4.56872,-4.271993 -7.61521,-4.766858 -5.71575,-1.170311 -11.58947,-0.66554 -17.38175,-0.802492 -3.57748,0 -7.15498,0 -10.732467,0 0,16.506488 0,33.012977 0,49.519465 z M 115.70532,59.66994 c 3.35656,0.0135 7.24723,0.725731 9.21717,3.748173 2.53085,3.783652 1.73812,9.813137 -2.4164,12.11652 -3.61918,1.979251 -7.8718,1.125787 -11.80635,1.32711 -1.01175,0 -2.02349,0 -3.03524,0 0,-5.729567 0,-11.459135 0,-17.188702 2.68028,-9.4e-5 5.36055,-0.0033 8.04082,-0.0032 z m -54.080992,1.373731 c 4.557498,-0.135367 9.428054,2.943602 10.133438,7.666418 1.067423,4.662819 -1.236274,10.310604 -5.985258,11.881567 -3.118152,1.091437 -6.66428,1.022017 -9.746478,-0.09329 -1.79048,-1.07847 -1.279784,-3.381691 -1.310673,-5.1195 0,-4.605775 0,-9.211549 0,-13.817324 2.299917,-0.213198 4.595622,-0.514069 6.908971,-0.517863 z m 114.196492,3.435881 c 7.55214,-0.161899 14.51344,6.626484 14.3389,14.221069 0.0686,7.169746 -5.9974,13.902577 -13.23201,14.216286 -6.5769,0.538636 -13.30496,-4.004098 -14.84741,-10.501429 -1.60615,-5.988767 1.06295,-12.992122 6.60829,-15.963707 2.16066,-1.245585 4.63359,-1.953529 7.13223,-1.972219 z" />
    <path
       d="M -0.99604865,107.71192 V 92.133147 H 4.6388269 V 65.367485 H -0.99604865 V 49.788711 H 30.575831 v 15.578774 h -5.800608 v 26.765662 h 5.800608 V 107.71192 Z M 14.665592,100.17113 6.1304114,93.624733 H 0.49553583 l 5.63487557,6.546397 z m 14.335787,5.96634 V 93.624733 H 23.200772 V 63.875901 l -8.53518,-6.463534 v 42.758763 h 8.700912 z m 0,-42.261569 V 51.363162 H 0.49553583 L 6.1304114,57.412367 H 23.366504 Z"
       style="font-size:52.1924px;line-height:1.25;font-family:'RACE1 Brannt Plus Chiseled NCV';-inkscape-font-specification:'RACE1 Brannt Plus Chiseled NCV, Normal';stroke-width:0.863184"
       id="path6942" />
    <path
       d="M 38.69653,107.71192 V 49.788711 h 22.042308 q 5.303413,0 9.861034,1.242987 4.640487,1.242988 8.037985,3.811827 3.397499,2.568842 5.303413,6.546401 1.98878,3.977559 1.98878,9.446704 0,7.292192 -2.817438,11.849813 -2.734572,4.474755 -6.877863,6.794997 -4.060426,2.320245 -8.866644,2.817439 -4.723352,0.497196 -8.700913,-0.248597 v 15.661638 z m 18.479078,-1.57445 V 90.392965 l -8.286582,-6.5464 V 100.5026 Z M 48.889026,83.846565 q 8.949508,1.98878 15.164447,1.242987 6.297801,-0.745791 9.612434,-4.226156 0.248597,-0.745793 -0.497194,-1.740183 -0.745793,-1.077256 -1.905914,-1.823049 -1.077257,-0.745791 -2.320244,-0.994388 -1.16012,-0.248599 -1.905914,0.580059 -1.574451,1.408719 -4.060425,1.657317 -2.403108,0.165732 -5.552011,-0.248598 V 64.041633 l -8.535179,-7.043595 z m 24.776881,-2.983169 q -0.580061,0.497194 -0.08286,1.491584 0.497195,0.994391 1.40872,1.823049 0.994388,0.745791 2.15451,1.16012 1.160122,0.331464 2.071646,-0.331462 2.568841,-2.40311 3.811829,-6.049206 1.325852,-3.646096 1.325852,-8.120851 0,-5.137681 -1.823048,-8.783778 -1.823049,-3.728962 -5.054815,-6.049204 -3.148902,-2.40311 -7.457924,-3.480365 -4.309023,-1.160121 -9.280974,-1.160121 H 40.188114 l 8.700912,5.634876 h 10.026765 q 2.734572,0 5.883473,0.414329 3.231768,0.414329 5.966339,1.905913 2.734572,1.40872 4.557621,4.143292 1.823048,2.734573 1.823048,7.375058 0,3.066036 -1.077255,5.717743 -0.99439,2.651706 -2.40311,4.309023 z M 58.915791,76.968702 q 1.740182,0.248597 3.314633,0.165732 1.657317,-0.165732 2.900304,-0.828658 1.242987,-0.662928 1.905913,-1.988781 0.745794,-1.325854 0.745794,-3.480365 0,-2.071645 -0.911525,-3.231767 -0.828659,-1.160121 -2.154511,-1.740182 -1.325854,-0.580061 -2.900304,-0.580061 -1.574451,-0.08286 -2.900304,0.08286 z"
       style="font-size:52.1924px;line-height:1.25;font-family:'RACE1 Brannt Plus Chiseled NCV';-inkscape-font-specification:'RACE1 Brannt Plus Chiseled NCV, Normal';stroke-width:0.863184"
       id="path6944" />
    <path
       d="M 92.724926,107.71192 V 49.788711 h 23.036694 q 4.80622,0 8.45233,0.580061 3.64608,0.497194 6.29779,1.823048 2.73458,1.325853 4.55762,3.56323 1.82305,2.154511 2.98318,5.469144 0.49719,1.325854 0.66292,2.734573 0.24859,1.408718 0.24859,2.817437 0,3.894694 -1.6573,7.292194 -1.65732,3.397498 -4.3919,5.054815 3.23177,0.828658 4.80622,3.480364 1.65732,2.568842 1.65732,7.292193 v 17.81615 H 120.23638 V 91.304489 q 0,-1.905914 -0.91153,-2.817437 -0.91151,-0.99439 -2.23737,-1.408719 -1.32586,-0.41433 -2.81744,-0.41433 -1.40871,-0.08286 -2.40311,-0.08286 v 21.130787 z m 17.567554,-1.57445 V 85.089552 l -8.20372,-5.966339 V 100.5026 Z m -8.20372,-27.014257 h 16.82176 q 1.98879,-0.165732 2.56885,-0.911524 0.66293,-0.828658 0.66293,-1.574451 0,-1.491585 -0.74581,-2.071646 -0.66292,-0.662926 -1.49157,-0.745793 -0.66293,0.248599 -1.65732,0.331464 -0.9944,0.08286 -2.07165,0.08286 h -5.88347 V 62.301448 l -8.20372,-5.469145 z m 9.77817,-6.463534 h 4.30902 q 3.23178,0 4.55762,-0.911525 1.40873,-0.911524 1.40873,-3.480363 0,-1.491587 -0.58007,-2.320245 -0.4972,-0.911523 -1.49158,-1.325852 -0.91152,-0.497196 -2.15452,-0.580061 -1.16011,-0.165732 -2.40311,-0.165732 h -3.64609 z m 7.04359,6.463534 q 4.97196,0 7.7894,3.148901 2.90029,3.066035 2.90029,7.623656 v 10.60683 l 8.28659,5.63487 V 89.067111 q 0,-3.314633 -1.32586,-5.220546 -1.24298,-1.905914 -2.81743,-2.817439 -1.49158,-0.911523 -2.9003,-1.16012 -1.40872,-0.248597 -1.65732,-0.248597 2.73457,-1.077257 4.47475,-3.148903 1.82305,-2.154511 2.65172,-4.640485 0.91151,-2.485975 0.91151,-5.137682 0.0829,-2.734572 -0.74579,-5.054816 -1.07725,-3.066034 -2.98318,-5.054814 -1.9059,-1.988781 -4.55761,-3.148901 -2.56884,-1.160122 -5.96634,-1.574452 -3.31464,-0.497194 -7.20933,-0.497194 H 94.21651 l 7.87225,5.469144 h 13.3414 q 5.46915,0 9.4467,2.320243 3.97757,2.237377 4.80622,6.960729 0.0829,0.497196 0.0829,0.911525 0.0829,0.414329 0.0829,0.828658 0,2.983169 -1.07725,5.13768 -1.07725,2.154512 -2.73457,3.563232 -1.65732,1.325852 -3.56323,1.988779 -1.90592,0.580061 -3.56324,0.580061 z"
       style="font-size:52.1924px;line-height:1.25;font-family:'RACE1 Brannt Plus Chiseled NCV';-inkscape-font-specification:'RACE1 Brannt Plus Chiseled NCV, Normal';stroke-width:0.863184"
       id="path6946" />
    <path
       d="m 176.00501,108.95491 q -6.21494,0 -11.76695,-2.40311 -5.46915,-2.40311 -9.61244,-6.46353 -4.06043,-4.143294 -6.46354,-9.612439 -2.32024,-5.552011 -2.32024,-11.766947 0,-6.214937 2.32024,-11.684081 2.40311,-5.55201 6.46354,-9.612436 4.14329,-4.143291 9.61244,-6.463534 5.55201,-2.403109 11.76695,-2.403109 6.29779,0 11.76694,2.403109 5.55201,2.320243 9.61244,6.463534 4.14329,4.060426 6.5464,9.529569 2.40311,5.469146 2.40311,11.766948 0,6.297803 -2.40311,11.849813 -2.40311,5.469144 -6.5464,9.612433 -4.06043,4.06043 -9.61244,6.46354 -5.55201,2.32024 -11.76694,2.32024 z m 0,-10.10963 q 4.22615,0 8.03798,-1.574452 3.89469,-1.657316 6.29779,-4.391888 0.58007,-0.828658 -0.0829,-2.071645 -0.66293,-1.242988 -1.82305,-2.237378 -1.07725,-1.077255 -2.32024,-1.657316 -1.243,-0.580062 -1.82305,-0.165732 -1.65732,1.657316 -3.8947,2.568841 -2.15451,0.911523 -4.55762,0.911523 -2.40311,0 -4.47476,-0.911523 -2.07164,-0.911525 -3.64608,-2.485975 -1.57446,-1.574451 -2.48599,-3.646096 -0.91151,-2.071646 -0.91151,-4.474755 0,-2.403108 0.91151,-4.474756 0.91153,-2.15451 2.56885,-3.728962 0.49719,-0.745791 -0.0829,-1.823046 -0.4972,-1.160122 -1.49159,-2.154513 -0.9944,-1.077255 -2.23737,-1.740181 -1.243,-0.662928 -2.07165,-0.331464 -2.81743,2.651706 -4.47475,6.380668 -1.57446,3.728962 -1.57446,7.95512 0,4.143291 1.57446,7.789387 1.57444,3.646096 4.30901,6.380668 2.73457,2.734574 6.38068,4.309023 3.64608,1.574452 7.87225,1.574452 z m -0.16574,-10.109631 q 2.07164,0 3.89468,-0.745793 1.90593,-0.828658 3.23178,-2.154511 1.40872,-1.408719 2.15451,-3.231768 0.82865,-1.823048 0.82865,-3.894693 0,-2.071646 -0.82865,-3.894694 -0.74579,-1.823049 -2.15451,-3.148901 -1.32585,-1.40872 -3.23178,-2.154511 -1.82304,-0.828658 -3.89468,-0.828658 -2.07165,0 -3.89469,0.828658 -1.82305,0.745791 -3.23176,2.154511 -1.32586,1.325852 -2.15453,3.148901 -0.74579,1.823048 -0.74579,3.894694 0,2.071645 0.74579,3.894693 0.82867,1.823049 2.15453,3.231768 1.40871,1.325853 3.23176,2.154511 1.82304,0.745793 3.89469,0.745793 z m 14.50151,4.143291 q -0.49718,0.745793 0.0829,1.98878 0.58007,1.160121 1.57446,2.237376 1.07725,1.077257 2.32025,1.657317 1.24298,0.580061 2.07164,0.165732 3.89469,-3.728962 6.13208,-9.032375 2.23737,-5.303412 2.23737,-11.186886 0,-5.96634 -2.23737,-11.186886 -2.23739,-5.220547 -6.21494,-9.115241 -3.8947,-3.894694 -9.11525,-6.132071 -5.22054,-2.237378 -11.18688,-2.237378 -5.96635,0 -11.10403,2.237378 -5.13767,2.237377 -9.11524,6.132071 -0.49718,0.911523 0.0829,2.071646 0.58007,1.077255 1.65732,2.071645 1.07726,0.99439 2.23739,1.57445 1.24297,0.580061 2.1545,0.331464 2.73458,-2.40311 6.0492,-4.060426 3.31464,-1.740182 8.038,-1.740182 4.22615,0 7.87224,1.574451 3.72896,1.57445 6.46354,4.309022 2.81743,2.734573 4.39189,6.463535 1.57446,3.646097 1.57446,7.789388 0,3.977559 -1.4916,7.789387 -1.49158,3.728962 -4.47475,6.297803 z"
       style="font-size:52.1924px;line-height:1.25;font-family:'RACE1 Brannt Plus Chiseled NCV';-inkscape-font-specification:'RACE1 Brannt Plus Chiseled NCV, Normal';stroke-width:0.863184"
       id="path6948" />
  </g>
</svg>
